<svg width="513" height="102" viewBox="0 0 513 102" fill="none" xmlns="http://www.w3.org/2000/svg">
<path d="M50.28 29.152C48.744 26.336 46.632 24.192 43.944 22.72C41.256 21.248 38.12 20.512 34.536 20.512C30.568 20.512 27.048 21.408 23.976 23.2C20.904 24.992 18.504 27.552 16.776 30.88C15.048 34.208 14.184 38.048 14.184 42.4C14.184 46.88 15.048 50.784 16.776 54.112C18.568 57.44 21.032 60 24.168 61.792C27.304 63.584 30.952 64.48 35.112 64.48C40.232 64.48 44.424 63.136 47.688 60.448C50.952 57.696 53.096 53.888 54.12 49.024H31.08V38.752H67.368V50.464C66.472 55.136 64.552 59.456 61.608 63.424C58.664 67.392 54.856 70.592 50.184 73.024C45.576 75.392 40.392 76.576 34.632 76.576C28.168 76.576 22.312 75.136 17.064 72.256C11.88 69.312 7.784 65.248 4.776 60.064C1.832 54.88 0.36 48.992 0.36 42.4C0.36 35.808 1.832 29.92 4.776 24.736C7.784 19.488 11.88 15.424 17.064 12.544C22.312 9.6 28.136 8.128 34.536 8.128C42.088 8.128 48.648 9.984 54.216 13.696C59.784 17.344 63.624 22.496 65.736 29.152H50.28ZM100.928 76.864C95.8075 76.864 91.1995 75.744 87.1035 73.504C83.0075 71.2 79.7755 67.968 77.4075 63.808C75.1035 59.648 73.9515 54.848 73.9515 49.408C73.9515 43.968 75.1355 39.168 77.5035 35.008C79.9355 30.848 83.2315 27.648 87.3915 25.408C91.5515 23.104 96.1915 21.952 101.312 21.952C106.432 21.952 111.072 23.104 115.232 25.408C119.392 27.648 122.656 30.848 125.024 35.008C127.456 39.168 128.672 43.968 128.672 49.408C128.672 54.848 127.424 59.648 124.927 63.808C122.496 67.968 119.168 71.2 114.944 73.504C110.784 75.744 106.112 76.864 100.928 76.864ZM100.928 65.152C103.36 65.152 105.632 64.576 107.744 63.424C109.92 62.208 111.648 60.416 112.928 58.048C114.208 55.68 114.848 52.8 114.848 49.408C114.848 44.352 113.504 40.48 110.816 37.792C108.192 35.04 104.96 33.664 101.12 33.664C97.2795 33.664 94.0475 35.04 91.4235 37.792C88.8635 40.48 87.5835 44.352 87.5835 49.408C87.5835 54.464 88.8315 58.368 91.3275 61.12C93.8875 63.808 97.0875 65.152 100.928 65.152ZM151.97 4.96V76H138.53V4.96H151.97ZM214.689 48.256C214.689 50.176 214.561 51.904 214.305 53.44H175.425C175.745 57.28 177.089 60.288 179.457 62.464C181.825 64.64 184.737 65.728 188.193 65.728C193.185 65.728 196.737 63.584 198.849 59.296H213.345C211.809 64.416 208.865 68.64 204.513 71.968C200.161 75.232 194.817 76.864 188.481 76.864C183.361 76.864 178.753 75.744 174.657 73.504C170.625 71.2 167.457 67.968 165.153 63.808C162.913 59.648 161.793 54.848 161.793 49.408C161.793 43.904 162.913 39.072 165.153 34.912C167.393 30.752 170.529 27.552 174.561 25.312C178.593 23.072 183.233 21.952 188.481 21.952C193.537 21.952 198.049 23.04 202.017 25.216C206.049 27.392 209.153 30.496 211.329 34.528C213.569 38.496 214.689 43.072 214.689 48.256ZM200.769 44.416C200.705 40.96 199.457 38.208 197.025 36.16C194.593 34.048 191.617 32.992 188.097 32.992C184.769 32.992 181.953 34.016 179.649 36.064C177.409 38.048 176.033 40.832 175.521 44.416H200.769ZM255.987 76L237.939 53.344V76H224.499V4.96H237.939V45.376L255.795 22.816H273.267L249.843 49.504L273.459 76H255.987Z" fill="#191919"/>
<path d="M312.05 76L294.002 53.344V76H280.562V4.96H294.002V45.376L311.858 22.816H329.33L305.906 49.504L329.522 76H312.05ZM386.064 48.256C386.064 50.176 385.936 51.904 385.68 53.44H346.8C347.12 57.28 348.464 60.288 350.832 62.464C353.2 64.64 356.112 65.728 359.568 65.728C364.56 65.728 368.112 63.584 370.224 59.296H384.72C383.184 64.416 380.24 68.64 375.888 71.968C371.536 75.232 366.192 76.864 359.856 76.864C354.736 76.864 350.128 75.744 346.032 73.504C342 71.2 338.832 67.968 336.528 63.808C334.288 59.648 333.168 54.848 333.168 49.408C333.168 43.904 334.288 39.072 336.528 34.912C338.768 30.752 341.904 27.552 345.936 25.312C349.968 23.072 354.608 21.952 359.856 21.952C364.912 21.952 369.424 23.04 373.392 25.216C377.424 27.392 380.528 30.496 382.704 34.528C384.944 38.496 386.064 43.072 386.064 48.256ZM372.144 44.416C372.08 40.96 370.832 38.208 368.4 36.16C365.968 34.048 362.992 32.992 359.472 32.992C356.144 32.992 353.328 34.016 351.024 36.064C348.784 38.048 347.408 40.832 346.896 44.416H372.144ZM409.314 31.072C411.042 28.256 413.282 26.048 416.034 24.448C418.85 22.848 422.05 22.048 425.634 22.048V36.16H422.082C417.858 36.16 414.658 37.152 412.482 39.136C410.37 41.12 409.314 44.576 409.314 49.504V76H395.874V22.816H409.314V31.072ZM441.503 16.48C439.071 16.48 437.055 15.744 435.455 14.272C433.919 12.736 433.151 10.848 433.151 8.608C433.151 6.368 433.919 4.512 435.455 3.04C437.055 1.504 439.071 0.735996 441.503 0.735996C443.871 0.735996 445.823 1.504 447.359 3.04C448.895 4.512 449.663 6.368 449.663 8.608C449.663 10.848 448.895 12.736 447.359 14.272C445.823 15.744 443.871 16.48 441.503 16.48ZM448.127 84.736C448.127 90.624 446.655 94.848 443.711 97.408C440.831 100.032 436.671 101.344 431.23 101.344H425.278V89.92H429.119C431.167 89.92 432.607 89.504 433.439 88.672C434.271 87.904 434.687 86.624 434.687 84.832V22.816H448.127V84.736ZM485.021 76.864C479.901 76.864 475.293 75.744 471.197 73.504C467.101 71.2 463.869 67.968 461.501 63.808C459.197 59.648 458.045 54.848 458.045 49.408C458.045 43.968 459.229 39.168 461.597 35.008C464.029 30.848 467.325 27.648 471.485 25.408C475.645 23.104 480.285 21.952 485.405 21.952C490.525 21.952 495.165 23.104 499.325 25.408C503.485 27.648 506.749 30.848 509.117 35.008C511.549 39.168 512.765 43.968 512.765 49.408C512.765 54.848 511.517 59.648 509.021 63.808C506.589 67.968 503.261 71.2 499.037 73.504C494.877 75.744 490.205 76.864 485.021 76.864ZM485.021 65.152C487.453 65.152 489.725 64.576 491.837 63.424C494.013 62.208 495.741 60.416 497.021 58.048C498.301 55.68 498.941 52.8 498.941 49.408C498.941 44.352 497.597 40.48 494.909 37.792C492.285 35.04 489.053 33.664 485.213 33.664C481.373 33.664 478.141 35.04 475.517 37.792C472.957 40.48 471.677 44.352 471.677 49.408C471.677 54.464 472.925 58.368 475.421 61.12C477.981 63.808 481.181 65.152 485.021 65.152Z" fill="#FF5C00"/>
</svg>
